<svg width="144" height="46" viewBox="0 0 144 46" fill="none" xmlns="http://www.w3.org/2000/svg">
<path d="M33.0762 23.6899C33.0762 29.3395 28.379 33.9599 22.5342 33.9599C16.6894 33.9599 11.9922 29.3395 11.9922 23.6899C11.9922 18.0403 16.6894 13.4199 22.5342 13.4199C28.379 13.4199 33.0762 18.0403 33.0762 23.6899Z" fill="white" stroke="#02021D" stroke-width="2"/>
<path d="M27.5801 23.6899C27.5801 29.3395 22.8829 33.9599 17.0381 33.9599C11.1933 33.9599 6.49609 29.3395 6.49609 23.6899C6.49609 18.0403 11.1933 13.4199 17.0381 13.4199C22.8829 13.4199 27.5801 18.0403 27.5801 23.6899Z" fill="white" stroke="#02021D" stroke-width="2"/>
<path d="M23.084 23.6899C23.084 29.9142 17.9164 34.9599 11.542 34.9599C5.16752 34.9599 0 29.9142 0 23.6899C0 17.4657 5.16752 12.4199 11.542 12.4199C17.9164 12.4199 23.084 17.4657 23.084 23.6899Z" fill="#02021D"/>
<path d="M56.69 34.04C55.233 34.04 53.979 33.8721 52.928 33.5362C51.877 33.2003 50.9097 32.7656 50.0259 32.232L48.3419 33.6547H47.2671V27.4305H48.3778C48.6644 28.3987 49.1302 29.3076 49.7751 30.1573C50.4439 31.007 51.3396 31.6985 52.4622 32.232C53.5849 32.7458 54.9583 33.0027 56.5825 33.0027C57.9201 33.0027 59.0308 32.8248 59.9146 32.4692C60.8222 32.1135 61.503 31.6294 61.9568 31.0168C62.4345 30.3845 62.6734 29.693 62.6734 28.9421C62.6734 28.1715 62.4584 27.5491 62.0284 27.0748C61.5985 26.6006 61.0372 26.2351 60.3445 25.9782C59.6757 25.7016 58.9472 25.4842 58.159 25.3261C57.3946 25.168 56.6661 25.0198 55.9734 24.8815C54.3014 24.5259 52.8325 24.0615 51.5665 23.4885C50.3006 22.8957 49.3093 22.135 48.5927 21.2063C47.9001 20.2776 47.5537 19.1217 47.5537 17.7385C47.5537 16.217 47.9478 14.9623 48.7361 13.9743C49.5243 12.9863 50.5633 12.2552 51.8531 11.781C53.143 11.287 54.5164 11.04 55.9734 11.04C57.0483 11.04 58.0037 11.1685 58.8397 11.4253C59.6996 11.6822 60.6072 12.0576 61.5627 12.5516L62.96 11.3068H64.0707V17.3532H62.9958C62.3031 15.476 61.3716 14.1324 60.2012 13.3223C59.0308 12.4924 57.5976 12.0774 55.9018 12.0774C54.8747 12.0774 53.9312 12.2157 53.0713 12.4924C52.2353 12.7492 51.5665 13.1247 51.0649 13.6186C50.5633 14.1126 50.3125 14.6955 50.3125 15.3674C50.3125 15.9997 50.5275 16.5233 50.9574 16.9382C51.3874 17.3334 51.9487 17.6496 52.6414 17.8867C53.3341 18.1238 54.0745 18.3214 54.8627 18.4795C55.651 18.6375 56.4034 18.7857 57.1199 18.9241C58.9352 19.2797 60.4639 19.7737 61.706 20.406C62.948 21.0186 63.8915 21.8287 64.5364 22.8364C65.1814 23.8442 65.5038 25.1088 65.5038 26.6302C65.5038 28.9619 64.7395 30.7797 63.2108 32.0839C61.706 33.388 59.5324 34.04 56.69 34.04Z" fill="#02021D"/>
<path d="M81.1371 34.04C79.274 34.04 77.5303 33.7239 75.9061 33.0916C74.3058 32.4593 72.8965 31.5997 71.6784 30.513C70.4841 29.4262 69.5406 28.1912 68.8479 26.8081C68.1791 25.4249 67.8447 23.9726 67.8447 22.4511C67.8447 20.9296 68.1791 19.4872 68.8479 18.1238C69.5406 16.7406 70.4841 15.5254 71.6784 14.4782C72.8965 13.4112 74.3058 12.5714 75.9061 11.9589C77.5303 11.3463 79.274 11.04 81.1371 11.04C83.0002 11.04 84.7438 11.3463 86.368 11.9589C87.9923 12.5714 89.4015 13.4112 90.5958 14.4782C91.814 15.5254 92.7575 16.7406 93.4263 18.1238C94.1189 19.4872 94.4653 20.9296 94.4653 22.4511C94.4653 23.9726 94.1189 25.4249 93.4263 26.8081C92.7575 28.1912 91.814 29.4262 90.5958 30.513C89.4015 31.5997 87.9923 32.4593 86.368 33.0916C84.7438 33.7239 83.0002 34.04 81.1371 34.04ZM81.1013 33.0027C82.3194 33.0027 83.3465 32.8545 84.1825 32.5581C85.0185 32.2419 85.6873 31.6985 86.1889 30.9279C86.7144 30.1573 87.0846 29.0903 87.2996 27.7269C87.5384 26.3635 87.6579 24.6247 87.6579 22.5104C87.6579 20.3961 87.5384 18.6672 87.2996 17.3235C87.0846 15.9601 86.7144 14.903 86.1889 14.1522C85.6873 13.3815 85.0185 12.848 84.1825 12.5516C83.3465 12.2355 82.3194 12.0774 81.1013 12.0774C79.907 12.0774 78.8918 12.2355 78.0558 12.5516C77.2437 12.848 76.5869 13.3717 76.0853 14.1225C75.5837 14.8734 75.2134 15.9305 74.9746 17.2939C74.7596 18.6375 74.6521 20.3566 74.6521 22.4511C74.6521 24.6049 74.7596 26.3734 74.9746 27.7565C75.2134 29.1199 75.5837 30.1869 76.0853 30.9576C76.6107 31.7084 77.2795 32.2419 78.0917 32.5581C78.9277 32.8545 79.9309 33.0027 81.1013 33.0027Z" fill="#02021D"/>
<path d="M105.473 23.5181V22.629H108.447C109.761 22.629 110.824 22.4906 111.636 22.214C112.448 21.9176 113.045 21.3841 113.427 20.6135C113.809 19.8231 114.001 18.6869 114.001 17.205C114.001 15.8021 113.845 14.7449 113.535 14.0336C113.224 13.3223 112.758 12.8381 112.137 12.5813C111.54 12.3244 110.788 12.196 109.88 12.196H96.6237V11.3068H111.672C113.391 11.3068 114.932 11.5637 116.294 12.0774C117.679 12.5912 118.778 13.3025 119.59 14.2114C120.402 15.1006 120.808 16.1281 120.808 17.2939C120.808 18.519 120.306 19.6058 119.303 20.5542C118.324 21.4829 116.915 22.214 115.075 22.7475C113.236 23.2613 111.027 23.5181 108.447 23.5181H105.473ZM96.6237 33.6547V32.7656H109.916V33.6547H96.6237ZM100.027 33.2101V11.3068H105.688V33.2101H100.027Z" fill="#02021D"/>
<path d="M135.509 33.2101L128.952 18.3609H128.809L128.594 17.2643L131.03 11.04H131.962L141.707 33.2101H135.509ZM117.308 33.6547V32.7656H126.05V33.6547H117.308ZM123.721 27.6083V26.7488H136.046V27.6083H123.721ZM131.567 33.6547V32.7656H144V33.6547H131.567ZM120.461 33.2101L131.03 11.04H131.962L130.098 15.7527L121.643 33.2101H120.461Z" fill="#02021D"/>
</svg>
